<?xml version="1.0" encoding="UTF-8"?><svg id="Layer_1" xmlns="http://www.w3.org/2000/svg" viewBox="0 0 87.46 87.46"><g id="MBG"><g><circle cx="43.54" cy="43.73" r="42.73" style="fill:#fff;"/><path d="M2.79,62.38c7.02-9.31,18.18-15.33,30.74-15.33s23.66,5.99,30.69,15.26" style="fill:none;"/><circle cx="43.78" cy="43.73" r="22.41" style="fill:#ecb722;"/><g><path d="M42.79,34.06h-3.21v-2.7h6.76l-3.17,11.15h-2.81l2.43-8.45Z" style="fill:#454545;"/><path d="M32.67,44.87h3.4c2,0,3.39,1.35,3.39,3.8v2.58c0,2.44-1.39,3.75-3.39,3.75h-3.4v-10.14Zm3.09,7.72c.5,0,1.18-.14,1.18-1.36v-2.54c0-1.22-.63-1.38-1.18-1.38h-.53v5.28h.53Z" style="fill:#454545;"/><path d="M42.75,44.87h2.73l2.6,10.14h-2.56l-.39-1.71h-2.08l-.39,1.71h-2.56l2.64-10.14Zm1.9,6.23l-.53-2.86-.58,2.86h1.11Z" style="fill:#454545;"/><path d="M49.97,51.48l-2.56-6.6h2.63l1.21,3.75,1.24-3.75h2.6l-2.56,6.6v3.53h-2.56v-3.53Z" style="fill:#454545;"/></g><circle cx="43.73" cy="43.73" r="42.73" style="fill:none; stroke:#ecb722; stroke-miterlimit:10; stroke-width:2px;"/><circle cx="43.73" cy="43.73" r="39.34" style="fill:none; stroke:#ecb722; stroke-miterlimit:10;"/><circle cx="43.78" cy="43.73" r="20.06" style="fill:none; stroke:#fff; stroke-miterlimit:10; stroke-width:2px;"/><polygon points="74.71 42.26 76.25 45.39 79.71 45.89 77.21 48.33 77.8 51.77 74.71 50.14 71.62 51.77 72.21 48.33 69.71 45.89 73.16 45.39 74.71 42.26" style="fill:#ecb722;"/><polygon points="12.76 42.26 14.3 45.39 17.76 45.89 15.26 48.33 15.85 51.77 12.76 50.14 9.67 51.77 10.26 48.33 7.76 45.89 11.21 45.39 12.76 42.26" style="fill:#ecb722;"/><g><path d="M15.83,60.36l3.52-2.24c1.33-.85,2.83-.55,3.64,.71s.46,2.73-.83,3.58l-.83-1.3c.69-.44,.71-.97,.39-1.47-.33-.51-.82-.7-1.61-.2l-3.51,2.23c-.69,.44-.71,.99-.41,1.46,.29,.46,.8,.72,1.51,.27l.6-.38-.55-.87,1.14-.73,1.38,2.17-1.7,1.08c-1.33,.85-2.82,.54-3.64-.74-.81-1.27-.45-2.74,.88-3.59Z" style="fill:#454545;"/><path d="M20.6,67.1l4.54-4.96,1.14,1.04-4.58,5.01c-.57,.62-.39,1.16,.01,1.53,.39,.36,.95,.48,1.51-.13l4.58-5.01,1.14,1.04-4.54,4.96c-1.09,1.19-2.59,1.25-3.7,.24-1.13-1.03-1.19-2.52-.1-3.71Z" style="fill:#454545;"/><path d="M31.64,67.21l1.47,.76-2.32,9.25-1.39-.72,.49-1.79-1.92-.99-1.2,1.42-1.39-.72,6.26-7.21Zm-1.37,6.19l1.06-3.79-2.5,3.05,1.44,.75Z" style="fill:#454545;"/><path d="M36.05,69.25l2.39,.52c1.49,.33,2.29,1.53,1.9,3.3l-.26,1.2c-.27,1.21-.92,1.87-1.79,2.07l.67,3.04-1.65-.36-.49-2.62-.72-.16-.53,2.39-1.52-.33,1.99-9.07Zm1.06,5.72c.63,.14,1.25,.02,1.49-1.08l.25-1.16c.23-1.03-.28-1.41-.91-1.55l-.7-.15-.83,3.78,.7,.15Z" style="fill:#454545;"/><path d="M43.97,70.34l1.66-.08,2.62,9.17-1.56,.07-.48-1.8-2.16,.1-.33,1.83-1.57,.07,1.82-9.37Zm1.91,6.04l-.98-3.82-.64,3.89,1.62-.07Z" style="fill:#454545;"/><path d="M48.83,69.93l1.38-.45,3.76,4.55-1.69-5.21,1.48-.48,2.86,8.81-1.38,.45-3.75-4.47,1.67,5.14-1.46,.47-2.86-8.82Z" style="fill:#454545;"/><path d="M56.94,68.23l-1.33,.83-.8-1.27,3.97-2.49,.8,1.27-1.34,.84,4.14,6.58-1.3,.82-4.14-6.58Z" style="fill:#454545;"/><path d="M59.65,64.55l3.05-3.05,1.06,1.06-1.96,1.96,1.71,1.71,1.46-1.46,.96,.96-1.46,1.46,1.78,1.78,1.96-1.96,1.05,1.05-3.05,3.05-6.56-6.56Z" style="fill:#454545;"/><path d="M63.6,60.33l2.26-3.67,1.28,.79-1.46,2.36,2.06,1.27,1.08-1.76,1.15,.71-1.08,1.76,2.14,1.32,1.46-2.36,1.27,.78-2.26,3.67-7.9-4.86Z" style="fill:#454545;"/></g><g><path d="M11.1,31.08l.68-1.37,5.82,1.01-4.34-4.01,.68-1.37,8.33,4.11-.68,1.38-4.58-2.26,2.82,2.67-.46,.93-3.81-.6,4.56,2.25-.68,1.37-8.33-4.11Z" style="fill:#454545;"/><path d="M21.57,26.2l-3.01-2.87c-1.14-1.09-1.22-2.62-.17-3.71,1.04-1.1,2.58-1.11,3.72-.02l3.01,2.87c1.13,1.08,1.2,2.62,.16,3.71s-2.57,1.1-3.71,.02Zm2.63-1.04c.35-.37,.52-.94-.1-1.53l-3.1-2.95c-.61-.58-1.16-.43-1.54-.03-.36,.38-.51,.93,.11,1.52l3.1,2.95c.61,.58,1.16,.43,1.53,.04Z" style="fill:#454545;"/><path d="M23.69,15.1l1.25-.73,4.66,3.62-2.78-4.72,1.34-.79,4.71,7.98-1.25,.74-4.63-3.55,2.75,4.66-1.33,.78-4.71-7.99Z" style="fill:#454545;"/><path d="M32.29,10.8l4.16-1.14,.4,1.45-2.68,.73,.64,2.34,1.99-.55,.36,1.31-1.99,.55,.66,2.42,2.68-.73,.39,1.43-4.16,1.14-2.45-8.95Z" style="fill:#454545;"/><path d="M42.02,15l-2.25-5.89,1.6-.03,1.39,3.93,1.27-3.98,1.59-.03-2.06,5.97,.06,3.34-1.54,.03-.06-3.34Z" style="fill:#454545;"/><path d="M53.16,10.38l2.21,.83c1.42,.53,2.16,1.52,1.57,3.1l-.15,.41c-.35,.95-.86,1.32-1.5,1.35,.5,.48,.68,1.08,.29,2.11l-.19,.51c-.58,1.54-1.78,1.78-3.19,1.25l-2.28-.85,3.25-8.69Zm-.5,8.15c.65,.24,1.06,.21,1.38-.64l.17-.44c.29-.78,.02-1.12-.58-1.34l-.84-.31-.91,2.44,.79,.29Zm1.36-3.57c.54,.2,.96,.21,1.28-.65l.12-.33c.33-.89-.01-1.17-.63-1.4l-.72-.27-.88,2.34,.81,.3Z" style="fill:#454545;"/><path d="M62.82,15.09l1.34,.97-3.65,8.81-1.27-.92,.74-1.7-1.75-1.26-1.39,1.23-1.27-.92,7.25-6.21Zm-2.26,5.92l1.61-3.59-2.92,2.65,1.31,.95Z" style="fill:#454545;"/><path d="M63.22,24.05l3.23-2.62c1.23-.99,2.75-.87,3.7,.3s.77,2.7-.46,3.69l-.38,.31-.97-1.2,.43-.35c.65-.53,.57-1.09,.22-1.52-.33-.41-.86-.62-1.53-.08l-3.32,2.69c-.65,.53-.57,1.09-.23,1.51,.32,.4,.87,.63,1.53,.09l.52-.42,.97,1.2-.48,.39c-1.22,.99-2.75,.85-3.7-.32s-.76-2.69,.46-3.68Z" style="fill:#454545;"/><path d="M73.83,27.39l.62,1.42-3.57,1.57,.22,.49,4.17-.21,.69,1.58-4.95,.1-3.55,3.63-.69-1.58,3.08-2.98-.22-.5-3.68,1.62-.62-1.42,8.5-3.73Z" style="fill:#454545;"/></g></g></g></svg>
