<svg width="58" height="32" viewBox="0 0 58 32" fill="none" xmlns="http://www.w3.org/2000/svg">
<g id="Layer_1">
<g id="Group">
<path id="Vector" d="M41.7513 0H16.0073C7.18127 0 0 7.18127 0 16.0073C0 24.8334 7.18127 32.0147 16.0073 32.0147H41.7659C50.592 32.0147 57.7586 24.8334 57.7586 16.0073C57.7586 7.18127 50.5773 0 41.7513 0ZM41.7513 29.7972H16.0073C8.40018 29.7972 2.20285 23.6145 2.20285 15.9927C2.20285 8.37081 8.3855 2.20285 16.0073 2.20285H41.7659C49.3731 2.20285 55.5558 8.3855 55.5558 16.0073C55.5558 23.6292 49.3731 29.8118 41.7659 29.8118L41.7513 29.7972Z" fill="#016A95"/>
<path id="Vector_2" d="M13.2759 17.5346H15.6109C15.5669 17.7549 15.5082 17.9752 15.376 18.1514C15.1998 18.4158 14.9501 18.636 14.627 18.7829C14.3186 18.9298 13.9515 19.0032 13.5403 19.0032C12.9675 19.0032 12.4682 18.871 12.057 18.6214C11.6311 18.3717 11.3081 18.0193 11.0878 17.564C10.8675 17.1234 10.75 16.6094 10.75 16.0367C10.75 15.464 10.8675 14.95 11.1025 14.5094C11.3374 14.0688 11.6605 13.731 12.057 13.4814C12.4682 13.2317 12.9382 13.1143 13.4668 13.1143C13.7312 13.1143 13.9955 13.1583 14.2452 13.2611C14.5095 13.3639 14.7445 13.4961 14.9648 13.6723C15.1851 13.8485 15.3613 14.0394 15.5082 14.2744L17.8579 12.8793C17.5788 12.424 17.2264 12.0128 16.8152 11.6604C16.404 11.3079 15.934 11.0289 15.376 10.8233C14.8179 10.6177 14.1864 10.5149 13.4668 10.5149C12.3654 10.5149 11.3962 10.7499 10.5591 11.2198C9.72201 11.6897 9.06116 12.3506 8.57653 13.173C8.0919 13.9954 7.85693 14.95 7.85693 16.0367C7.85693 17.1234 8.0919 18.0633 8.57653 18.9004C9.06116 19.7228 9.72201 20.3836 10.5591 20.8536C11.4109 21.3235 12.3801 21.5585 13.4668 21.5585C14.4214 21.5585 15.2585 21.3823 15.9928 21.0298C16.7271 20.6774 17.2851 20.134 17.711 19.4144C18.0928 18.7535 18.269 17.9311 18.3131 16.9766H18.3425V15.3905H13.2759V17.5199V17.5346Z" fill="#016A95"/>
<path id="Vector_3" d="M22.3074 10.7058H19.4878V21.3823H26.6984V18.7829H22.3074V10.7058Z" fill="#016A95"/>
<path id="Vector_4" d="M34.4819 11.1758C33.8651 10.8674 33.1455 10.7058 32.3525 10.7058H27.9321V21.3823H30.7518V18.1808H32.3525C33.1602 18.1808 33.8651 18.0193 34.4819 17.6962C35.0987 17.3731 35.5833 16.9325 35.9358 16.3745C36.2883 15.8164 36.4645 15.1556 36.4645 14.436C36.4645 13.7164 36.2883 13.0555 35.9358 12.4975C35.5833 11.9394 35.0987 11.4988 34.4819 11.1904V11.1758ZM33.219 15.2584C32.984 15.4786 32.6609 15.5814 32.2791 15.5814H30.7518V13.2758H32.2791C32.6609 13.2758 32.984 13.3786 33.219 13.5989C33.4539 13.8192 33.5714 14.0835 33.5714 14.4213C33.5714 14.759 33.4539 15.0528 33.219 15.2584Z" fill="#016A95"/>
<path id="Vector_5" d="M41.8981 15.6843H37.3162V17.9753H41.8981V15.6843Z" fill="#016A95"/>
<path id="Vector_6" d="M45.6136 10.6765C45.408 10.8968 45.173 11.1318 44.9086 11.3667C44.6443 11.6017 44.3653 11.7926 44.0716 11.9248C43.7779 12.0716 43.4841 12.1304 43.1904 12.0863V14.6563C43.7485 14.7151 44.2772 14.6563 44.7618 14.4507C44.9527 14.3773 45.1436 14.2745 45.3198 14.1717V21.3823H47.9926V10.7059H45.6429L45.6136 10.6765Z" fill="#016A95"/>
</g>
</g>
</svg>
