<svg width="37" height="32" viewBox="0 0 37 32" fill="none" xmlns="http://www.w3.org/2000/svg">
<g id="Layer_1">
<path id="Vector" d="M35.3735 14.7952H30.6185L33.3012 12.1607C33.7831 11.6948 33.7831 10.9398 33.3173 10.4579C32.8514 9.97594 32.0964 9.97594 31.6145 10.4418L27.1807 14.7952H23.8233C23.5663 13.6225 22.9398 12.5944 22.0884 11.8233L23.7751 8.89963L29.7671 7.22895C30.4096 7.05224 30.7791 6.39361 30.6024 5.75104C30.4257 5.10847 29.751 4.73899 29.1245 4.9157L25.51 5.92774L27.8876 1.81529C28.2249 1.23698 28.0161 0.498025 27.4538 0.176739C26.8755 -0.16061 26.1365 0.0482255 25.8153 0.610474L23.4378 4.73899L22.506 1.0924C22.3454 0.449832 21.6707 0.0642897 21.0442 0.224932C20.4016 0.385575 20.0161 1.04421 20.1767 1.68678L21.7189 7.71088L20.0321 10.6346C19.4859 10.4579 18.9237 10.3454 18.3133 10.3454C17.7028 10.3454 17.1406 10.4579 16.5944 10.6346L14.9076 7.71088L16.4498 1.68678C16.6104 1.04421 16.2249 0.385575 15.5823 0.224932C14.9398 0.0642897 14.2811 0.449832 14.1205 1.0924L13.1888 4.73899L10.7952 0.610474C10.4578 0.0321612 9.71888 -0.16061 9.15663 0.176739C8.57831 0.514089 8.38554 1.25304 8.72289 1.81529L11.1004 5.92774L7.48594 4.9157C6.84337 4.73899 6.18474 5.10847 6.00803 5.75104C5.83133 6.39361 6.2008 7.05224 6.84337 7.22895L12.8353 8.89963L14.5221 11.8233C13.6707 12.5944 13.0442 13.6225 12.7871 14.7952H9.42972L4.99598 10.4418C4.51406 9.97594 3.75904 9.97594 3.29317 10.4579C2.82731 10.9398 2.82731 11.6948 3.30924 12.1607L5.99197 14.7952H1.20482C0.546185 14.7952 0 15.3414 0 16C0 16.6587 0.546185 17.2049 1.20482 17.2049H5.95984L3.27711 19.8394C2.79518 20.3053 2.79518 21.0603 3.26104 21.5422C3.50201 21.7832 3.80723 21.9117 4.12851 21.9117C4.4498 21.9117 4.73896 21.7992 4.96386 21.5743L9.39759 17.2209H12.755C13.012 18.3936 13.6386 19.4217 14.49 20.1928L12.8032 23.1165L6.81124 24.7872C6.16867 24.9639 5.7992 25.6225 5.9759 26.2651C6.15261 26.9077 6.82731 27.2771 7.45382 27.1004L11.0683 26.0884L8.69076 30.2008C8.35341 30.7791 8.56225 31.5181 9.1245 31.8394C9.31727 31.9518 9.5261 32 9.71888 32C10.1365 32 10.5382 31.7912 10.7631 31.3896L13.1406 27.2771L14.0723 30.9237C14.2169 31.4699 14.6988 31.8233 15.245 31.8233C15.3414 31.8233 15.4378 31.8233 15.5502 31.7912C16.1928 31.6306 16.5783 30.9719 16.4177 30.3293L14.8755 24.3053L16.5623 21.3816C17.1084 21.5583 17.6707 21.6707 18.2811 21.6707C18.8916 21.6707 19.4538 21.5583 20 21.3816L21.6867 24.3053L20.1446 30.3293C19.9839 30.9719 20.3695 31.6306 21.012 31.7912C21.1084 31.8233 21.2048 31.8233 21.3173 31.8233C21.8474 31.8233 22.3454 31.4699 22.49 30.9237L23.4217 27.2771L25.7992 31.4057C26.0241 31.7912 26.4257 32.0161 26.8434 32.0161C27.0522 32.0161 27.261 31.9679 27.4378 31.8555C28.0161 31.5181 28.2088 30.7791 27.8715 30.2169L25.494 26.1045L29.1084 27.1165C29.751 27.2932 30.4096 26.9237 30.5863 26.2812C30.7631 25.6386 30.3936 24.9799 29.751 24.8032L23.759 23.1326L22.0723 20.2089C22.9237 19.4378 23.5502 18.4097 23.8072 17.237H27.1647L31.5984 21.5904C31.8394 21.8153 32.1446 21.9277 32.4337 21.9277C32.7229 21.9277 33.0602 21.7992 33.3012 21.5583C33.7671 21.0763 33.7671 20.3213 33.2851 19.8555L30.6024 17.2209H35.3574C36.0161 17.2209 36.5623 16.6747 36.5623 16.0161C36.5623 15.3575 36.0161 14.8113 35.3574 14.8113L35.3735 14.7952ZM15.0361 16C15.0361 14.2008 16.498 12.739 18.2972 12.739C20.0964 12.739 21.5582 14.2008 21.5582 16C21.5582 17.7992 20.0964 19.2611 18.2972 19.2611C16.498 19.2611 15.0361 17.7992 15.0361 16Z" fill="#016A95"/>
</g>
</svg>
