<svg width="33" height="32" viewBox="0 0 33 32" fill="none" xmlns="http://www.w3.org/2000/svg">
<g id="Layer_1">
<g id="Group">
<path id="Vector" d="M22.6844 4.03876C19.0584 4.03876 16.5526 5.02632 14.5333 7.23728C12.5729 9.38929 9.89028 12.3225 6.67702 13.3101C3.39005 14.3271 0.0146484 15.8453 0.0146484 19.3386V26.6201C0.0146484 29.627 3.08052 31.9853 7.00129 31.9853H16.3168C25.3081 31.9853 32.619 26.5464 32.619 19.8692V11.5118C32.619 7.38468 28.1676 4.00928 22.6844 4.00928V4.03876ZM30.3933 11.5413V12.6026C30.3933 13.2806 30.2901 13.9439 30.1132 14.5777L17.9529 7.29624C19.2058 6.58873 20.724 6.24972 22.6844 6.24972C26.9442 6.24972 30.408 8.62282 30.408 11.5413H30.3933ZM16.1105 8.77022L29.1846 16.597C28.4476 17.7615 27.4011 18.808 26.1187 19.6924L13.0593 11.895C14.209 10.8485 15.2408 9.74304 16.1252 8.77022H16.1105ZM11.2463 13.3838L23.893 20.9305C22.2569 21.6675 20.3702 22.1686 18.3656 22.3897L6.92759 15.5652C7.06025 15.521 7.17817 15.4768 7.31083 15.4326C8.74058 14.9904 10.0524 14.2534 11.2463 13.3838ZM4.36288 16.6118L14.2385 22.5077H6.98655C4.39235 22.5077 2.21087 21.0632 2.21087 19.3534C2.21087 18.5279 2.53515 17.5993 4.36288 16.6118ZM16.3021 29.7891H6.98655C4.39235 29.7891 2.21087 28.3446 2.21087 26.6348V23.2741C3.44901 24.1585 5.1146 24.7039 6.98655 24.7039H16.3021C16.9211 24.7039 17.5255 24.6744 18.1151 24.6302C21.3136 24.3649 24.2468 23.4068 26.6052 21.9623C26.6494 21.9476 26.6789 21.9181 26.7231 21.8886C28.1823 20.9747 29.4205 19.884 30.3785 18.6606V19.884C30.3785 25.3377 24.0552 29.7891 16.2873 29.7891H16.3021Z" fill="#016A95"/>
<path id="Vector_2" d="M1.10548 6.75081H4.53984V10.1852C4.53984 10.7895 5.041 11.2906 5.64532 11.2906C6.24965 11.2906 6.75081 10.7895 6.75081 10.1852V6.75081H10.1852C10.7895 6.75081 11.2906 6.24965 11.2906 5.64532C11.2906 5.041 10.7895 4.53984 10.1852 4.53984H6.75081V1.10548C6.75081 0.501152 6.24965 0 5.64532 0C5.041 0 4.53984 0.501152 4.53984 1.10548V4.53984H1.10548C0.501152 4.53984 0 5.041 0 5.64532C0 6.24965 0.501152 6.75081 1.10548 6.75081Z" fill="#016A95"/>
</g>
</g>
</svg>
